<?xml version="1.0" encoding="UTF-8"?>
<svg width="57px" height="42px" viewBox="0 0 57 42" version="1.1" xmlns="http://www.w3.org/2000/svg" xmlns:xlink="http://www.w3.org/1999/xlink">
    <title>DeepSeek_logo</title>
    <g id="Page-1" stroke="none" stroke-width="1" fill="none" fill-rule="evenodd">
        <g id="DeepSeek_logo" transform="translate(-0, -0.0001)" fill="#4D6BFE" fill-rule="nonzero">
            <path d="M56.4019953,3.471332 C55.7982475,3.179632 55.538209,3.735532 55.1851692,4.017932 C55.064379,4.109032 54.96225,4.227432 54.8600196,4.336732 C53.9775722,5.265932 52.9465458,5.876532 51.5995989,5.803532 C49.6303446,5.694132 47.9490191,6.304732 46.4627224,7.789832 C46.1469034,5.958532 45.0973173,4.865032 43.4995611,4.163632 C42.663665,3.799132 41.818337,3.434632 41.2330475,2.641932 C40.8243286,2.077232 40.712869,1.448532 40.5085095,0.828931998 C40.3783889,0.455431998 40.2483696,0.0726319977 39.8117604,0.00883199773 C39.3380319,-0.0639680023 39.1522321,0.327631998 38.9664324,0.655831998 C38.2233348,1.995232 37.935406,3.471232 37.9631948,4.965432 C38.0282045,8.327532 39.4680512,11.006032 42.3289821,12.910332 C42.6541316,13.129032 42.737701,13.347532 42.6355719,13.666632 C42.4404416,14.322632 42.2081919,14.960332 42.0039339,15.616332 C41.8738132,16.035532 41.6786829,16.126632 41.2236155,15.944232 C39.6537495,15.297532 38.2974721,14.340732 37.0992057,13.183732 C35.0649417,11.243032 33.2257067,9.101932 30.9314042,7.425432 C30.392666,7.033632 29.8538264,6.669332 29.2964272,6.322932 C26.9555733,4.081732 29.603017,2.241132 30.2160954,2.022632 C30.8569626,1.794832 30.4390145,1.011132 28.3675298,1.020432 C26.296045,1.029432 24.4011309,1.712832 21.9860383,2.623932 C21.6330999,2.760632 21.261399,2.860732 20.8805703,2.942732 C18.6883968,2.532832 16.4125526,2.441532 14.0345794,2.705932 C9.5572312,3.197832 5.98109294,5.284332 3.35231033,8.846832 C0.194120114,13.129032 -0.548977501,17.994232 0.36136018,23.069232 C1.3181478,28.417332 4.08617881,32.845332 8.34060789,36.307732 C12.7529465,39.897332 17.8340425,41.655832 23.6303459,41.318732 C27.1509065,41.118332 31.0708554,40.653732 35.4924231,36.963732 C36.6070189,37.510432 37.7774965,37.728932 39.718962,37.892932 C41.2144878,38.029632 42.6543345,37.820132 43.7689302,37.592432 C45.5152654,37.227932 45.3945767,35.633432 44.7629386,35.341932 C39.6447232,32.991332 40.7685481,33.947932 39.7468522,33.173432 C42.3477446,30.139532 46.267795,26.986932 47.8004401,16.773332 C47.9211288,15.962532 47.8189998,15.452232 47.8004401,14.796232 C47.7911096,14.395432 47.8840094,14.240632 48.3485088,14.194932 C49.6303446,14.049132 50.875061,13.703032 52.0176484,13.083432 C55.3338495,11.297732 56.6713644,8.363932 56.9871834,4.847032 C57.0337348,4.309432 56.9779543,3.753532 56.4019953,3.471332 Z M27.5038449,35.123132 C22.543539,31.278432 20.1377769,30.011832 19.1437685,30.066532 C18.2148711,30.121232 18.3821112,31.169032 18.5863692,31.852432 C18.8000593,32.526532 19.0787589,32.991332 19.4688167,33.583432 C19.7381858,33.975232 19.9240869,34.558232 19.199549,34.995732 C17.6017928,35.970632 14.8243298,34.667632 14.6942091,34.603932 C11.4617801,32.726932 8.75865735,30.248632 6.85431124,26.859532 C5.01507618,23.597532 3.94693041,20.099032 3.77035979,16.363432 C3.72390985,15.461532 3.99327893,15.142432 4.90361661,14.978632 C6.10188307,14.759932 7.33737033,14.714232 8.53563678,14.887332 C13.5982745,15.616332 17.9082813,17.848532 21.5216403,21.383632 C23.5837945,23.397132 25.1443299,25.802632 26.7514167,28.153232 C28.4605311,30.649532 30.2997661,33.027732 32.64062,34.977432 C33.4672869,35.660732 34.1268152,36.180032 34.7584533,36.562832 C32.85431,36.772332 29.6773572,36.818032 27.5037435,35.123132 L27.5038449,35.123132 Z M29.8818181,20.044332 C29.8818181,19.643432 30.2069677,19.324632 30.615788,19.324632 C30.7086879,19.324632 30.7922572,19.342632 30.8665974,19.369932 C30.9688278,19.406532 31.0617277,19.461232 31.1359665,19.543032 C31.2660872,19.670732 31.3403259,19.852832 31.3403259,20.044232 C31.3403259,20.445132 31.0152778,20.763932 30.6066603,20.763932 C30.1980428,20.763932 29.8820209,20.445132 29.8820209,20.044232 L29.8818181,20.044332 Z M37.2666486,23.779932 C36.79292,23.971332 36.3191915,24.135132 35.8640227,24.153432 C35.1580444,24.189832 34.3870566,23.907332 33.9691085,23.561132 C33.3189108,23.023532 32.8544114,22.723032 32.6593825,21.784532 C32.5757118,21.383632 32.6221617,20.764032 32.6966033,20.408832 C32.863742,19.643432 32.6779422,19.151532 32.1299749,18.704932 C31.6840352,18.340432 31.1174068,18.240332 30.4949979,18.240332 C30.2627482,18.240332 30.049261,18.140032 29.8912501,18.058032 C29.6311101,17.930532 29.417623,17.611632 29.621881,17.219832 C29.6868906,17.092432 30.0028111,16.782532 30.0771513,16.727932 C30.9224793,16.254032 31.8978266,16.409032 32.7988337,16.764332 C33.6349327,17.101432 34.2665707,17.721032 35.176807,18.595632 C36.1057043,19.652432 36.272843,19.944232 36.802352,20.736732 C37.2205029,21.356332 37.6013315,21.994032 37.8613701,22.723032 C38.0192796,23.178632 37.8149201,23.552132 37.2668514,23.779932 L37.2666486,23.779932 Z" id="Shape"></path>
        </g>
    </g>
</svg>