<?xml version="1.0" encoding="UTF-8"?>
<svg width="180px" height="180px" viewBox="0 0 180 180" version="1.1" xmlns="http://www.w3.org/2000/svg" xmlns:xlink="http://www.w3.org/1999/xlink">
    <title>Shape</title>
    <g id="Page-1" stroke="none" stroke-width="1" fill="none" fill-rule="evenodd">
        <g id="qwen-seeklogo" transform="translate(0.2742, 0.8)" fill="#615CED">
            <path d="M117.525766,70.8 C117.925766,70.8 118.025766,71 117.825766,71.3 L111.025766,83.2 L89.8257658,120.5 C89.8257658,120.7 89.6257658,120.7 89.4257658,120.7 C89.2257658,120.7 89.1257658,120.7 89.0257658,120.5 L60.9257658,71.5 C60.7257658,71.2 60.9257658,71.1 61.1257658,71.1 L62.9257658,71.1 C62.9257658,71.1 117.625766,70.9 117.625766,70.9 L117.625766,70.9 L117.525766,70.8 Z M66.4257658,5.6 C66.2257658,5.6 66.1257658,5.6 66.0257658,5.8 L42.7257658,46.6 C42.5257658,47 42.1257658,47.2 41.6257658,47.2 L18.3257658,47.2 C17.8257658,47.2 17.7257658,47.4 18.0257658,47.8 L65.2257658,130.4 C65.4257658,130.7 65.3257658,130.9 64.9257658,130.9 L42.2257658,130.9 C41.5257658,130.9 40.9257658,131.3 40.6257658,132 L29.9257658,150.8 C29.5257658,151.4 29.7257658,151.8 30.5257658,151.8 L77.0257658,151.8 C77.4257658,151.8 77.7257658,152 77.8257658,152.4 L89.2257658,172.4 C89.6257658,173.1 89.9257658,173.1 90.3257658,172.4 L131.025766,101.2 L137.425766,90 C137.425766,89.8 137.625766,89.8 137.825766,89.8 C138.025766,89.8 138.125766,89.8 138.225766,90 L149.825766,110.6 C150.025766,110.9 150.325766,111.1 150.725766,111.1 L173.225766,110.9 C173.325766,110.9 173.425766,110.9 173.525766,110.7 C173.525766,110.6 173.525766,110.5 173.525766,110.4 L149.925766,69 C149.725766,68.7 149.725766,68.4 149.925766,68.1 L152.325766,64 L161.425766,47.9 C161.625766,47.6 161.425766,47.4 161.125766,47.4 L66.8257658,47.4 C66.3257658,47.4 66.2257658,47.2 66.5257658,46.8 L78.2257658,26.4 C78.4257658,26.1 78.4257658,25.8 78.2257658,25.5 L67.1257658,6 C67.1257658,5.8 66.9257658,5.7 66.7257658,5.7 L66.7257658,5.7 L66.4257658,5.6 Z M94.3257658,2.4 C97.5257658,8 100.725766,13.6 103.825766,19.3 C104.125766,19.8 104.525766,20 105.125766,20 L150.225766,20 C151.625766,20 152.825766,20.9 153.825766,22.7 L165.625766,43.6 C167.125766,46.3 167.625766,47.5 165.825766,50.4 C163.725766,53.9 161.625766,57.4 159.625766,61 L156.625766,66.4 C155.725766,68 154.825766,68.7 156.325766,70.6 L177.925766,108.3 C179.325766,110.7 178.825766,112.3 177.625766,114.6 C174.025766,121 170.425766,127.3 166.725766,133.6 C165.425766,135.8 163.825766,136.6 161.225766,136.6 C154.925766,136.5 148.625766,136.6 142.325766,136.7 C142.025766,136.7 141.825766,136.9 141.625766,137.1 C134.325766,150 127.025766,162.8 119.625766,175.6 C118.225766,178 116.525766,178.6 113.725766,178.6 C105.625766,178.6 97.4257658,178.6 89.2257658,178.6 C87.5257658,178.6 86.3257658,177.9 85.4257658,176.4 L74.5257658,157.5 C74.4257658,157.2 74.1257658,157.1 73.8257658,157.1 L32.2257658,157.1 C29.9257658,157.3 27.7257658,157.1 25.7257658,156.4 L12.7257658,133.9 C11.9257658,132.4 11.9257658,131 12.7257658,129.5 L22.5257658,112.3 C22.8257658,111.8 22.8257658,111.2 22.5257658,110.7 C17.4257658,101.8 12.3257658,93 7.32576585,84.1 L0.925765847,72.8 C-0.374234153,70.3 -0.474234153,68.8 1.72576585,65 C5.52576585,58.4 9.22576585,51.8 13.0257658,45.2 C14.1257658,43.3 15.5257658,42.5 17.7257658,42.5 C24.7257658,42.5 31.7257658,42.5 38.8257658,42.5 C39.2257658,42.5 39.5257658,42.3 39.7257658,42 L62.5257658,2.2 C63.3257658,0.9 64.4257658,0.2 65.9257658,0.2 C70.2257658,0.2 74.5257658,0.2 78.8257658,0.2 L87.1257658,0 C89.9257658,0 93.0257658,0.3 94.4257658,2.8 L94.3257658,2.4 Z" id="Shape"></path>
        </g>
    </g>
</svg>