<?xml version="1.0" encoding="UTF-8"?>
<svg width="789px" height="221px" viewBox="0 0 789 221" version="1.1" xmlns="http://www.w3.org/2000/svg" xmlns:xlink="http://www.w3.org/1999/xlink">
    <title>logo</title>
    <g id="Page-1" stroke="none" stroke-width="1" fill="none" fill-rule="evenodd">
        <g id="logo" fill-rule="nonzero">
            <g id="12">
                <path d="M209.808177,146.844396 L208.401677,149.164393 C204.59808,147.464115 200.643502,146.320007 196.537944,145.732067 C180.364695,143.40675 164.864225,145.358631 150.036537,151.587707 C143.194822,154.455928 135.049925,159.501162 128.343296,163.35461 C128.10491,163.492333 127.73144,163.561195 127.222884,163.561195 C127.588413,162.528307 127.961883,161.503364 128.343296,160.486365 C129.996115,156.084718 129.821297,151.675093 126.452098,148.441397 C122.367731,144.516445 112.705098,144.349577 107.11095,145.247394 C101.000288,146.224668 95.6683555,150.221124 96.6934269,157.157331 C97.0165744,159.339621 97.8270902,161.225291 99.1249752,162.81434 L99.1249752,164 L98.0105196,163.561195 C92.8931386,161.039915 88.8478351,158.886737 83.1212452,155.449083 C67.3082242,145.962461 49.1431158,143.666298 30.437663,146.455086 C26.8406642,146.990055 22.3775251,148.17654 17.0482448,150.01454 C15.379535,147.408509 13.9783488,144.871331 12.8446856,142.403007 C12.2805001,141.179433 11.5176617,140.067104 12.4076399,138.787907 C17.0323539,132.177475 21.1485069,124.981737 24.7560997,117.200694 C25.1057359,116.448537 25.9241995,114.851544 27.2114914,112.409713 C28.0326004,110.847142 28.7874925,109.228961 29.4761686,107.555169 C30.2813859,107.094339 30.6760487,106.305109 30.660157,105.187478 C30.6601753,104.962271 30.6113718,104.739975 30.5171246,104.535974 C19.813536,81.2802423 18.3832166,55.2357229 22.7298058,30.1287732 C23.7840098,24.0533093 25.6063491,18.3512734 28.1968238,13.0226647 C28.5686912,12.2499381 29.474902,11.8937266 30.278735,12.2043054 C35.724562,14.3124336 40.8922681,17.1674233 45.7818534,20.7692771 C53.7810683,26.6646343 61.3485393,33.4445768 68.484264,41.1091053 C73.99101,47.0203689 79.4023979,54.8146504 83.8125642,61.4489097 C83.9729178,61.6866266 84.2672037,61.795374 84.5436176,61.7190694 C102.978899,56.3798562 121.252606,56.4275261 139.36474,61.8620775 C139.913239,62.0265686 140.505315,61.8021147 140.81095,61.3138541 C145.080729,54.3908948 150.020645,47.812226 155.630697,41.5778477 C166.342227,29.6838412 179.469409,18.0122768 194.789761,12.0851077 C195.345014,11.8719765 195.973914,12.0694921 196.307496,12.5618271 C197.022662,13.6211926 197.629227,14.8447593 198.127192,16.2325256 C206.200577,38.8844228 205.85094,63.7848129 200.217058,87.4139719 C198.860901,93.1080626 196.808122,98.9186845 194.058721,104.845838 C193.920084,105.154089 193.946977,105.512593 194.130234,105.799265 C199.422434,113.871635 203.586256,124.72484 208.354001,131.716645 C210.096881,134.264418 211.535149,136.401691 212.668804,138.128462 C213.16677,138.880603 213.103202,139.889649 212.478103,141.155598 C211.498062,143.12602 210.608087,145.022285 209.808177,146.844396 Z M162.965075,73.1919908 C170.370977,77.3791253 176.068419,82.8216219 182.218826,88.9235634 C182.352638,89.0571031 182.545134,89.1135135 182.729895,89.0733606 C182.914631,89.0332078 183.06634,88.9019714 183.132639,88.7249323 C185.903218,81.5901028 187.601066,74.1745417 188.226183,66.4782504 C188.681759,60.9165879 188.851275,54.8252382 188.73473,48.2042022 C188.692356,45.7517678 188.260609,43.2569573 187.439488,40.7197717 C187.395814,40.5824128 187.299032,40.4682094 187.170676,40.4025491 C187.042345,40.336888 186.893087,40.3252499 186.756123,40.3701794 C186.406486,40.4814081 186.173395,40.6641494 186.05685,40.9184028 C180.502435,52.7647641 171.777453,63.498796 162.877665,72.5643094 C162.789662,72.6523744 162.748037,72.776592 162.765206,72.899887 C162.782375,73.0231829 162.856362,73.1313121 162.965075,73.1919908 Z M37.9865923,41.3077364 C37.7587997,41.7579536 37.6104704,42.2505556 37.5416051,42.7855398 C35.6027199,58.8984929 36.8423319,74.5559181 41.2604397,89.7578164 C41.3107529,89.9311816 41.4482261,90.065886 41.6215709,90.1116641 C41.7949158,90.1574422 41.9780886,90.1074333 42.102746,89.9802816 C46.7804337,85.3296668 51.8368916,81.002158 57.2721175,76.9977568 C59.0096951,75.7106314 60.7790576,74.6565637 62.5802067,73.8355531 C62.6822873,73.7909993 62.7562501,73.6995035 62.7783963,73.5903557 C62.8005488,73.4812207 62.7681019,73.3681328 62.6914541,73.2873297 C53.6963105,63.9119439 45.8772107,53.2441268 39.2341521,41.2838776 C39.1068216,41.0559803 38.8642665,40.9167542 38.6032214,40.9215959 C38.3421762,40.9267199 38.1051208,41.0751108 37.9865923,41.3077364 Z M148.664859,109.678608 C145.414801,109.837535 142.375391,111.575181 140.215273,114.50927 C138.055155,117.443369 136.951271,121.333564 137.146472,125.324055 C137.341647,129.314571 138.819928,133.078524 141.256083,135.787855 C143.692251,138.49721 146.886752,139.930011 150.136822,139.771048 C153.386881,139.612134 156.426291,137.8745 158.586409,134.9404 C160.746527,132.006299 161.850411,128.116117 161.655211,124.125601 C161.460034,120.135085 159.981754,116.371144 157.545587,113.661802 C155.109432,110.952459 151.91493,109.519669 148.664859,109.678608 Z M75.5853502,110.156358 C72.348545,110.280673 69.3048906,111.97665 67.1239485,114.871179 C64.943012,117.765721 63.8034495,121.621702 63.9559402,125.590869 C64.1084358,129.560024 65.5405082,133.317235 67.9371057,136.03595 C70.3337087,138.754664 73.4985163,140.212174 76.7353223,140.087835 C79.9721275,139.963521 83.0157819,138.267543 85.1967184,135.373014 C87.3776549,132.478484 88.517223,128.622491 88.3647267,124.653336 C88.2122304,120.684157 86.7801588,116.926946 84.3835676,114.208243 C81.9869638,111.489529 78.8221443,110.03202 75.5853502,110.156358 Z" id="path4" fill="#F67B26"></path>
                <g id="Group" transform="translate(1, 1)" fill="#243036">
                    <path d="M9.67886473,42.311613 C9.28130431,44.2430931 9.18632349,44.1862122 9.39392226,42.1409704 C9.60152103,40.0957286 9.7492691,37.0355935 9.83716646,32.9605652 C10.359558,33.6370863 10.6972669,33.4309715 10.8502908,32.3422222 C11.5995814,27.1045876 12.7551782,22.1682124 14.3170829,17.5330985 C15.0399894,15.3872929 15.9977093,12.7314753 17.1902424,9.56564579 C19.0027889,4.76140093 22.8653293,-0.0904083416 28.3187957,0.115697795 C30.7830172,0.210844072 33.152255,0.755219103 35.4265107,1.74882289 C46.3334435,6.49759138 56.037293,14.1003478 64.7042668,22.0281473 C69.9282023,26.8059561 74.7563816,31.9510979 79.1888045,37.4635735 C82.6925313,41.8238632 85.2174288,45.0848303 86.7634978,47.2464756 C87.3861524,48.1185462 88.2620861,48.4356614 89.3912989,48.197821 C93.3488222,47.3627502 96.5860771,46.8606502 99.1030643,46.6915193 C104.15286,46.3480006 108.155235,46.1260318 111.110189,46.0256119 C114.260374,45.9225466 116.745699,46.2951294 120.022527,46.3823478 C124.18585,46.5012601 128.293748,47.3099115 132.749924,48.1423201 C133.483457,48.2800799 134.242557,48.1387399 134.879073,47.7459301 C135.702237,47.2385399 136.451527,46.5408896 137.126944,45.65298 C140.277132,41.5252404 142.635817,38.6025256 144.202997,36.8848354 C145.917924,35.0085964 147.099903,33.6370863 147.748935,32.7703059 C148.957303,31.1477454 150.118179,29.7550982 151.231562,28.5923644 C154.951628,24.7183199 157.951429,21.8325978 160.230967,19.9351963 C162.120025,18.3655079 165.341447,15.7334809 169.895231,12.0391152 C174.164078,8.57202536 178.947406,5.55946317 184.245215,3.00142867 C186.424494,1.94438901 188.142061,1.25731122 189.397918,0.940196068 C192.067926,0.268981796 193.893659,-0.0428431307 194.875117,0.00472128745 C199.758711,0.258417211 203.20966,3.86555564 204.998469,8.13071568 C208.359722,16.1695003 210.496787,24.8345867 211.409661,34.1259771 C212.30669,43.2905108 212.74993,50.2299808 212.739383,54.9443863 C212.734101,57.6821154 212.570525,61.611656 212.248654,66.7330073 C211.955801,71.3786986 211.25135,75.8816831 210.649823,79.6870292 C209.404514,87.5038434 207.328127,95.1621008 204.420662,102.661801 C204.128944,103.416378 204.180974,104.261804 204.563151,104.976716 C206.119767,107.894141 209.285785,114.064613 214.061207,123.488133 C215.41204,126.157153 218.242983,130.269037 222.554036,135.823787 C223.503851,137.044651 222.736091,138.852187 222.102897,140.271271 C219.427608,146.269976 217.786554,149.848058 217.179737,151.005517 C212.868668,159.260997 208.114358,166.269169 202.916808,172.030033 C198.76933,176.633454 195.882976,179.749081 194.257744,181.376915 C189.772552,185.874626 185.625066,189.516128 181.81529,192.301422 C172.148384,199.373022 163.265067,204.742787 155.165341,208.410716 C143.371915,213.754045 130.185444,217.440467 117.204772,218.756485 C113.579684,219.121165 109.553565,219.076245 105.126416,218.621726 C96.2457325,217.70738 88.1671055,215.994973 80.8905348,213.484503 C80.2626144,213.267808 78.0384878,212.469745 74.218156,211.090316 C71.5428663,210.128406 69.3292913,209.251061 67.5774319,208.458281 C58.7653445,204.483817 50.517865,199.56858 42.8349944,193.71257 C37.3577837,189.542555 32.6720753,185.5258 28.77787,181.662304 C25.1052891,178.010246 21.2506622,173.612964 17.2139892,168.470459 C9.92159309,159.173795 4.24386655,149.256118 0.180808737,138.717428 C-0.163058882,137.816455 -0.00989956281,136.799762 0.584474534,136.037829 C5.38627056,129.917575 9.54694702,123.250296 13.0665039,116.035994 C14.8605814,112.357491 16.6071694,108.787341 18.3062664,105.325541 C18.7123574,104.501346 18.7326531,103.540081 18.3616717,102.70143 C17.0952635,99.8421432 16.3327801,97.9526854 16.0742209,97.0330583 C15.3354842,94.4433134 14.8473902,92.8392532 14.609938,92.2208777 C14.0664395,90.8255858 13.5994509,89.2215295 13.2089748,87.4087098 C12.5599409,84.4489951 11.8027353,80.4613128 10.9373572,75.4456636 C10.546881,73.1783083 10.3358128,71.1170796 10.3041542,69.2619777 C10.2645766,66.4238239 9.74218352,64.2040377 9.67886473,61.0012123 C9.56805487,54.5955369 9.59180001,48.4462101 9.75010015,42.5532318 C9.75555283,42.346956 9.6020405,42.1692774 9.39392226,42.1409704 C9.26200534,42.1251156 9.89520987,42.0737886 9.67886473,42.311613 Z M28.6512324,106.031115 C26.8465986,108.430592 25.2926113,111.049405 23.9892707,113.887555 C21.5356054,119.246747 19.0977703,124.006072 16.675766,128.16553 C15.00833,131.030099 13.3910216,133.506214 11.8238416,135.593874 C10.573265,137.269289 10.3806658,138.939414 11.2460432,140.604249 C12.3963638,142.829313 13.7603899,145.445485 15.3381215,148.452765 C16.5781465,150.80996 18.1321346,153.328357 20.0000864,156.007957 C26.727876,165.687793 33.9543113,174.392526 43.2386634,181.844652 C61.6807189,196.645865 82.1015354,206.381202 105.6963,209.19556 C109.321389,209.628951 112.827753,209.636878 116.215391,209.219343 C131.264536,207.358959 145.392895,202.879757 158.600468,195.781737 C166.056446,191.775547 172.528315,187.557952 178.016077,183.128952 C182.5171,179.498023 187.746309,174.572221 193.703706,168.351547 C196.553128,165.370687 198.452734,162.683175 201.523775,158.719275 C203.201762,156.557615 205.024854,153.56619 206.993052,149.745 C207.731802,148.31799 208.159222,146.81435 208.275309,145.234081 C209.07208,143.415971 209.958561,141.523869 210.934754,139.557774 C211.5574,138.294603 211.620718,137.287773 211.124707,136.537284 C209.995502,134.814304 208.56288,132.681724 206.826842,130.139544 C202.077814,123.16309 197.930338,112.333713 192.658913,104.279066 C192.476376,103.993024 192.449588,103.635307 192.587681,103.327733 C195.326289,97.4135926 197.371009,91.6157281 198.721842,85.9341391 C204.333607,62.3568589 204.681872,37.5111387 196.640181,14.9089747 C196.144171,13.5242553 195.539986,12.303375 194.827628,11.2463353 C194.495355,10.7550813 193.868925,10.5579994 193.315852,10.7706626 C178.055643,16.6848184 164.979995,28.3307573 154.310515,40.19865 C148.722486,46.4193405 143.801963,52.9835656 139.548946,59.8913252 C139.244511,60.3785138 138.654759,60.6024749 138.108413,60.4383449 C120.067382,55.0157254 101.865412,54.9681601 83.5025026,60.2956509 C83.2271737,60.3717879 82.9340431,60.2632793 82.7743191,60.0260843 C78.3814658,53.4063908 72.9913214,45.629222 67.5061933,39.7309368 C60.3984814,32.0832361 52.8607181,25.3181793 44.8929057,19.4357656 C40.0225156,15.8418198 34.8750963,12.9930983 29.4506481,10.8895986 C28.6499707,10.5797017 27.7473174,10.9351311 27.3769099,11.7061611 C24.7966046,17.0230706 22.9814193,22.7125875 21.9313538,28.7747125 C17.601828,53.8265388 19.0265325,79.8138764 29.6881019,103.018549 C29.7819791,103.222103 29.8305909,103.443911 29.8305727,103.668622 C29.846402,104.7838 29.4532886,105.571297 28.6512324,106.031115 Z" id="Path"></path>
                    <path d="M147.372035,108.149916 C154.113352,107.819685 159.906483,114.273602 160.311354,122.565142 C160.716225,130.856694 155.579524,137.846019 148.838196,138.176263 C142.096879,138.506484 136.303747,132.05259 135.898877,123.761014 C135.494006,115.469486 140.630707,108.480161 147.372035,108.149916 Z" id="path1"></path>
                    <path d="M74.5793908,108.626582 C81.2932191,108.368253 86.992268,114.844513 87.3085873,123.091718 C87.6249066,131.338924 82.4387005,138.234038 75.7248722,138.492379 C69.0110439,138.750695 63.3119831,132.274446 62.9956702,124.027241 C62.6793572,115.780025 67.8655625,108.884922 74.5793908,108.626582 Z" id="path2"></path>
                    <path d="M126.014223,161.914177 C125.993112,162.025163 125.932427,162.099154 125.832168,162.136155 C125.906042,161.91946 125.890212,161.739757 125.78468,161.597046 C125.732494,161.522505 125.649449,161.475594 125.55876,161.469425 C125.468059,161.463279 125.379447,161.498529 125.317695,161.565353 C122.631858,164.466922 119.558183,166.570429 116.09667,167.875874 C115.832901,167.974391 115.602137,168.147739 115.431798,168.375329 C114.89358,169.099399 114.576979,169.915961 114.481994,170.825016 C114.059857,174.677931 113.904195,178.530839 114.01501,182.383737 C114.051942,183.578197 114.759018,184.127863 116.136236,184.032733 C125.119819,183.382648 130.604952,179.268118 136.485827,173.084444 C137.736405,171.768426 139.6835,171.498884 140.759947,173.472899 C140.879767,173.697198 140.947412,173.943805 140.957823,174.194331 C141.052808,176.414122 140.113556,178.372289 138.140068,180.068833 C133.129843,184.365687 127.454755,188.06798 120.845698,189.574257 C109.171004,192.222139 96.8156166,189.217521 87.3492153,182.074566 C85.3862868,180.592071 82.1252916,177.65084 83.8111886,175.034676 C84.9192983,173.311696 86.3097092,173.232421 87.9824214,174.796851 C92.2143356,178.776606 97.0820885,181.577756 102.58568,183.2003 C104.115928,183.654835 105.577575,183.80282 106.970623,183.644254 C107.375626,183.594633 107.727284,183.343913 107.904592,182.978322 C109.630079,179.442531 109.337214,175.970151 109.487602,170.880517 C109.524543,169.707202 109.252793,168.814002 108.672353,168.200917 C108.604213,168.127392 108.523946,168.065746 108.4349,168.018569 L103.860003,165.560946 C103.717864,165.487155 103.582694,165.39955 103.45634,165.299339 C100.052684,163.394605 97.9723358,161.921999 97.2152951,160.881521 C96.079734,159.320804 95.9264941,157.701873 95.6046153,155.524373 C94.5835679,148.603396 99.894569,144.615713 105.981242,143.640585 C111.55343,142.74474 121.178129,142.911241 125.246463,146.827576 C128.602435,150.054172 128.776567,154.454116 127.130236,158.846099 C126.750321,159.860865 126.378317,160.883557 126.014223,161.914177 Z" id="path3"></path>
                </g>
                <path d="M208,149.341779 C206.508862,152.21882 205.305911,154.329348 204.391148,155.673363 C183.816667,186.016111 152.724937,205.223485 115.874883,209.83828 C113.590596,210.121788 110.473493,210.032537 106.523573,209.570529 C72.4654337,205.538483 42.3413494,186.575236 22.5838254,158.799778 C20.1250396,155.345243 18.2637639,152.473456 17,150.18442 C22.319437,148.362647 26.7743326,147.186638 30.3646878,146.656392 C49.0355914,143.892225 67.1671486,146.168116 82.9509628,155.570983 C88.6669756,158.978286 94.078947,161.931448 99.1868761,164.430467 L108.569919,170.391922 C109.022956,170.678586 109.307052,171.166333 109.331342,171.69919 C109.548141,176.046243 109.26525,180.070415 108.482671,183.771704 C108.407611,184.125371 108.093185,184.378414 107.729163,184.378101 C101.447365,184.401726 94.4041443,180.338173 89.9624634,176.243113 C84.8624611,171.549562 81.0553197,177.95202 84.8386672,181.669066 C96.4346224,193.048567 116.073172,196.615985 130.397575,188.733029 C134.220596,186.630368 145.745157,179.755423 142.279068,174.250714 C141.136921,172.431569 138.868493,172.297706 137.329767,173.762462 C130.817947,179.975925 125.717957,184.559214 116.096966,184.614345 C115.99246,184.616772 115.891742,184.575508 115.819344,184.500645 C115.746958,184.425783 115.709549,184.324172 115.716254,184.22059 L116.509411,171.636201 C116.542632,171.104593 116.888379,170.643787 117.389814,170.462795 C120.990744,169.124035 124.123709,166.913762 126.788711,163.831976 C126.889179,163.795222 126.949991,163.721722 126.971146,163.611475 C127.478762,163.611475 127.851542,163.543221 128.089488,163.406714 C134.78373,159.587287 142.913583,154.586596 149.742661,151.743698 C164.542963,145.569616 180.014802,143.634969 196.15818,145.939755 C200.256155,146.522505 204.203428,147.656512 208,149.341779 Z" id="path5" fill="#FEFAEC"></path>
                <g id="g1" transform="translate(37, 40)" fill="#CC5610">
                    <path d="M126.214374,32.9905419 C126.105744,32.9296013 126.031814,32.8210053 126.014658,32.6971772 C125.997502,32.5733499 126.039095,32.4485961 126.127031,32.3601509 C135.020045,23.2555026 143.738386,12.475133 149.288574,0.577632165 C149.405031,0.322281225 149.637944,0.138750953 149.987315,0.0270421485 C150.124175,-0.0180813654 150.273319,-0.00639293182 150.401553,0.0595516019 C150.529811,0.125495338 150.626519,0.240191683 150.67016,0.378143607 C151.490656,2.92628198 151.922074,5.43186226 151.964416,7.89488365 C152.080872,14.544502 151.911485,20.6621474 151.456256,26.247819 C150.831614,33.9773344 149.135059,41.4249078 146.366589,48.5905376 C146.30034,48.7683409 146.148747,48.9001438 145.964151,48.94047 C145.779531,48.9807962 145.587181,48.9241423 145.453471,48.7900261 C139.307745,42.6617432 133.61464,37.1957519 126.214374,32.9905419 Z" id="path6"></path>
                    <path d="M1.33101423,0.968646497 C1.44945253,0.735016668 1.68632756,0.58598515 1.94717403,0.580839067 C2.20802049,0.57597641 2.45039092,0.715803526 2.57762458,0.944684729 C9.215627,12.9565651 17.0287756,23.6704341 26.0170729,33.0862924 C26.0936624,33.1674444 26.1260846,33.2810204 26.1039489,33.3906266 C26.0818196,33.5002455 26.0079131,33.5921363 25.9059102,33.6368824 C24.106132,34.4614373 22.3381161,35.5200552 20.6018611,36.8127371 C15.170772,40.8344248 10.1181626,45.180615 5.44403517,49.8513061 C5.31947259,49.9790067 5.13643922,50.0292315 4.96322629,49.9832558 C4.79001335,49.93728 4.65264483,49.8019941 4.60236991,49.6278805 C0.187624801,34.3603572 -1.05104377,18.6353405 0.886365784,2.4528294 C0.955178676,1.9155357 1.10339509,1.42080726 1.33101423,0.968646497 Z" id="path7"></path>
                </g>
                <g id="g2" fill="#010304">
                    <path d="M11.0258656,33.9995182 C11.2421548,33.76165 11.724847,32.2483468 11.8567298,32.2642045 C12.0647942,32.2925167 11.9090867,33.1747477 11.9036354,33.3810614 C11.7453762,39.2751242 10.9150844,54.6932633 11.0258656,61.1001176 C11.089168,64.3035324 11.4531652,67.4689354 11.4927326,70.3076114 C11.524383,72.1630547 11.7353966,74.2246627 12.1257718,76.4924354 C12.9909262,81.5090076 13.747936,85.4974237 14.396802,88.4576831 C14.7871772,90.2708365 15.254045,91.8751879 15.797403,93.2707366 C16.0347938,93.8892259 16.5227616,95.4935813 17.2613072,98.0838028 C17.5197996,99.0035992 18.2820858,100.893405 19.5481666,103.753218 C19.9190521,104.592023 19.8987615,105.553465 19.4927756,106.377812 C17.794118,109.840249 16.0479816,113.411056 14.254368,117.090236 C10.7357212,124.305866 6.57612064,130.974371 1.77556627,137.095752 C1.18134587,137.857825 1.02822615,138.874705 1.37200486,139.775844 C5.43401203,150.316473 11.1102704,160.235975 18.4007808,169.53435 C22.43641,174.677802 26.2900402,179.075893 29.9616714,182.728623 C33.8548697,186.59283 38.5393665,190.610325 44.0151609,194.781107 C51.6960449,200.638194 59.9413916,205.554336 68.7512004,209.529532 C70.5026068,210.322458 72.7156094,211.199964 75.3902074,212.162051 C79.2095513,213.541734 81.4331027,214.339943 82.0608608,214.556679 C89.3355499,217.067611 97.4120879,218.780333 106.290475,219.694847 C110.716479,220.14945 114.741557,220.194378 118.365708,219.829631 C131.343023,218.513371 144.526084,214.82627 156.316461,209.481958 C164.414093,205.813353 173.295112,200.4426 182.959519,193.369699 C186.76831,190.583892 190.914723,186.94172 195.398755,182.443182 C197.023567,180.815048 199.909175,177.698847 204.05558,173.094579 C209.251786,167.332655 214.004867,160.323194 218.314821,152.066195 C218.921481,150.908522 220.56211,147.329781 223.236707,141.329973 C223.869738,139.910628 224.6373,138.102759 223.68773,136.88167 C219.377792,131.325898 216.547581,127.213257 215.197097,124.543746 C210.42291,115.118492 207.25771,108.946884 205.701497,106.028923 C205.319419,105.313879 205.267403,104.468297 205.559045,103.713581 C208.465758,96.212501 210.541609,88.5528342 211.786596,80.7345815 C212.387967,76.9285351 213.092236,72.4247219 213.385013,67.7781756 C213.706801,62.6558819 213.870335,58.7256181 213.875615,55.9873851 C213.88616,51.272112 213.443034,44.3313649 212.546237,35.1651446 C211.633599,25.8720442 209.497087,17.2053632 206.136703,9.16509918 C204.348357,4.8991542 200.8983,1.29135194 196.015969,1.03760932 C195.034765,0.990036153 193.209504,1.30191847 190.540186,1.97325626 C189.284654,2.29042977 187.567531,2.97763402 185.388815,4.0348682 C180.092376,6.59337347 175.310285,9.60649007 171.042542,13.074218 C166.489935,16.7692635 163.269347,19.4017749 161.380776,20.9717522 C159.101828,22.8695029 156.102803,25.7557561 152.383699,29.6305135 C151.270604,30.7934614 150.110028,32.1863648 148.901972,33.809224 C148.253109,34.6761639 147.071435,36.0479264 145.356952,37.9245107 C143.790177,39.6425169 141.432102,42.5657696 138.282728,46.6942688 C137.607486,47.5823418 136.85839,48.2801205 136.035438,48.7876042 C135.399088,49.1804862 134.640183,49.3218522 133.90684,49.1840671 C129.451817,48.3515053 125.34498,47.542705 121.182734,47.4237709 C117.906753,47.3365364 115.422071,46.963885 112.2727,47.0669694 C109.318511,47.1674077 105.317171,47.3894174 100.268681,47.7329993 C97.7523445,47.9021613 94.5159267,48.4043538 90.5594267,49.2395782 C89.4305059,49.4774623 88.5547987,49.1602888 87.9323052,48.2880577 C86.386636,46.1260146 83.8623913,42.8644474 80.3595706,38.5033552 C75.9282937,32.9898651 71.101363,27.8437764 65.8787782,23.0650883 C57.2140456,15.13583 47.5127053,7.53167433 36.6085929,2.7820319 C34.3349253,1.78824526 31.9663001,1.24377004 29.5027158,1.14860626 C24.0506596,0.942462188 20.189118,5.79516436 18.3770402,10.6002934 C17.1848154,13.7667055 16.2273432,16.4230118 15.5046236,18.5692123 C13.9431228,23.2051793 12.7878248,28.1424629 12.038728,33.3810614 C11.8857436,34.4700111 11.548122,34.6761639 11.0258656,33.9995182 C11.8857436,25.9751127 13.8639936,18.2810924 16.9606156,10.9174589 C20.6480736,2.17148772 26.3296076,-2.57813012 36.5294637,1.7908746 C42.2848505,4.25952392 47.7078921,7.37837084 52.7985901,11.1474138 C66.4247768,21.2281321 78.2784516,33.3308256 88.3596135,47.4554951 C89.2142191,48.6607337 90.1716858,48.3673551 91.4456788,48.1136124 C105.889544,45.2855076 120.101293,45.3436553 134.080927,48.2880577 C135.008943,48.4811344 135.962051,48.1078296 136.510223,47.3365364 C144.80304,35.6435263 154.214233,25.3804263 164.743801,16.5472372 C171.715153,10.7112903 192.027834,-4.49702176 200.605523,1.29135194 C203.327597,3.13092958 205.290022,5.31411291 206.492797,7.84090272 C209.167379,13.4653977 211.098145,19.6977995 212.285095,26.5381075 C215.186528,43.2476898 215.553167,59.9942843 213.385013,76.7778887 C212.140026,86.3934299 209.81097,95.4962146 206.397845,104.086245 C206.163241,104.671381 206.209921,105.332088 206.524432,105.878265 C208.186174,108.78566 210.591734,113.453351 213.741108,119.881338 C216.708483,125.939279 220.229753,131.132958 224.281205,136.247315 C225.58687,137.888678 224.87468,139.545889 224.028007,141.615439 C220.583216,150.02574 217.473405,156.334786 214.698574,160.542574 C195.12182,190.182146 165.155281,211.115384 130.646688,218.917771 C118.819391,221.592573 107.216294,221.690365 95.8373961,219.211149 C64.892293,212.476571 39.3491299,196.824215 19.2079076,172.25408 C11.033777,162.294933 4.32355305,151.075037 0.0900964864,139.141514 C-0.0180560232,138.837076 -0.0291278928,138.509796 0.0584468605,138.205842 C0.327488068,137.275487 0.733687678,136.474632 1.27704648,135.803279 C8.06640204,127.461708 12.2998554,118.517505 17.7677384,107.337246 C18.2952744,106.264153 18.5880562,105.407792 18.6460854,104.768161 C18.666853,104.523409 18.6260781,104.275511 18.5273888,104.046608 C15.4782448,97.0952867 13.2546918,89.4594109 11.8567298,81.1389808 C9.73076943,68.4627426 10.0974064,46.4061814 11.0258656,33.9995182 Z" id="path8"></path>
                    <path d="M29.8350665,107.083516 C29.1492714,108.75394 28.3975372,110.368866 27.5798631,111.928293 C26.2979563,114.365211 25.4829166,115.958991 25.134743,116.709635 C21.5422418,124.475023 17.4433078,131.656284 12.8379402,138.253416 C11.951685,139.53004 12.7113322,140.640131 13.2731576,141.861243 C14.4020784,144.324601 15.797403,146.856674 17.4591322,149.457462 C18.7199382,151.762242 20.5768574,154.653779 23.0298881,158.132073 C42.7411679,186.098558 72.7947442,205.192226 106.773168,209.252003 C110.713842,209.717188 113.82365,209.807053 116.10259,209.521595 C152.866392,204.875061 183.88535,185.535588 204.411674,154.984156 C205.324296,153.630898 206.524432,151.505854 208.01208,148.609026 L209.412696,146.293696 C209.296638,147.874256 208.869329,149.378173 208.13077,150.805446 C206.163081,154.627338 204.34046,157.619314 202.662908,159.781372 C199.59266,163.746001 197.693545,166.434008 194.84486,169.415416 C188.889004,175.637236 183.661147,180.563944 179.161288,184.195541 C173.674945,188.625356 167.204749,192.843728 159.7507,196.850655 C146.546542,203.949981 132.421836,208.430007 117.376583,210.290734 C113.98982,210.708345 110.484363,210.700417 106.860211,210.266947 C83.2715482,207.45207 62.8560122,197.714942 44.4187255,182.911005 C35.1367741,175.457507 27.9122075,166.751173 21.1861576,157.069555 C19.3186888,154.389462 17.7651026,151.870601 16.5253982,149.512973 C14.9480746,146.505139 13.5844012,143.888486 12.434378,141.663012 C11.5692244,139.997871 11.7617738,138.327438 13.012027,136.651715 C14.5788018,134.563671 16.195692,132.0871 17.8626968,129.222004 C20.2840748,125.06178 22.7212796,120.30158 25.1743103,114.941401 C26.477314,112.102729 28.0308994,109.483434 29.8350665,107.083516 Z" id="path9"></path>
                    <path d="M126.990873,163.198881 C124.332109,166.301861 121.206476,168.527335 117.613975,169.875303 C117.113714,170.057539 116.768776,170.521515 116.735632,171.056779 L115.944332,183.727718 C115.937643,183.832012 115.974964,183.934322 116.047181,184.009699 C116.119409,184.085077 116.219891,184.126625 116.324153,184.124181 C125.922625,184.068671 131.010679,179.45386 137.507257,173.197664 C139.042381,171.722833 141.305499,171.857617 142.444973,173.689274 C145.90295,179.231842 134.405363,186.154069 130.59129,188.271192 C116.300415,196.208363 96.7078309,192.61641 85.139017,181.158646 C81.3645247,177.416035 85.1627552,170.969544 90.2508205,175.695375 C94.6821052,179.818599 101.708841,183.9101 107.975936,183.886313 C108.339105,183.886627 108.652796,183.631845 108.72768,183.275745 C109.508427,179.549 109.790656,175.497152 109.574365,171.120202 C109.550131,170.58368 109.2667,170.092578 108.814723,169.803943 L99.1925129,163.801488 C98.8255101,163.248903 98.6420087,162.868298 98.6420087,162.659673 C98.6420087,162.451048 98.8255101,162.308327 99.1925129,162.23151 L104.620831,166.362647 C104.747152,166.462876 104.882287,166.550497 105.02439,166.624302 L109.598103,169.082377 C109.687127,169.129563 109.767372,169.19122 109.835495,169.264759 C110.415785,169.877957 110.687464,170.771321 110.650533,171.944852 C110.500184,177.035422 110.792973,180.508441 109.067933,184.044884 C108.890671,184.410542 108.539104,184.661308 108.134205,184.710938 C106.741517,184.869534 105.280248,184.721521 103.750396,184.266902 C98.2482277,182.64406 93.3817335,179.842394 89.1509135,175.861907 C87.4786339,174.297188 86.0885825,174.376478 84.9807594,176.099775 C83.2952983,178.716421 86.5554503,181.658193 88.5178711,183.140961 C97.9818246,190.285231 110.334018,193.290402 122.005693,190.642032 C128.61304,189.135478 134.286661,185.432504 139.29559,181.134859 C141.268568,179.438003 142.207577,177.479475 142.112617,175.259276 C142.102209,175.008704 142.03458,174.762052 141.914792,174.537711 C140.838623,172.563333 138.892032,172.832925 137.641777,174.149185 C131.762423,180.333996 126.278708,184.449284 117.297448,185.099488 C115.920586,185.194636 115.213693,184.644869 115.17677,183.450189 C115.065984,179.596581 115.221606,175.742965 115.643634,171.889341 C115.738594,170.980119 116.055113,170.163406 116.593192,169.439203 C116.763488,169.211571 116.994191,169.038191 117.257893,168.939656 C120.71851,167.633971 123.79139,165.530076 126.476533,162.627973 C126.538269,162.561138 126.626858,162.525881 126.717536,162.532028 C126.808201,162.538198 126.891225,162.585118 126.943397,162.659673 C127.048902,162.80241 127.064727,162.982145 126.990873,163.198881 Z" id="path10"></path>
                </g>
            </g>
            <text id="FoxiFill-dark" fill="#243036" font-family="PingFangHK-Semibold, PingFang HK" font-size="150" font-weight="500">
                <tspan x="285" y="165">FoxiFill</tspan>
            </text>
        </g>
    </g>
</svg>