<?xml version="1.0" encoding="UTF-8"?>
<svg width="285px" height="279px" viewBox="0 0 285 279" version="1.1" xmlns="http://www.w3.org/2000/svg" xmlns:xlink="http://www.w3.org/1999/xlink">
    <title>Untitled</title>
    <g id="Page-1" stroke="none" stroke-width="1" fill="none" fill-rule="evenodd">
        <g id="12" transform="translate(0.5561, 0.1614)" fill-rule="nonzero">
            <path d="M264.643873,184.498586 L262.873854,187.418569 C258.087192,185.278574 253.110528,183.838582 247.943861,183.098592 C227.590528,180.171915 208.08386,182.62858 189.423857,190.468587 C180.813856,194.078572 170.563856,200.428578 162.123854,205.278584 C161.823856,205.451924 161.35386,205.538594 160.713865,205.538594 C161.173867,204.238586 161.643863,202.948578 162.123854,201.668569 C164.203856,196.128591 163.983854,190.578572 159.743864,186.508595 C154.603865,181.568593 142.443861,181.358571 135.403868,182.488576 C127.713865,183.718587 121.003859,188.748586 122.293867,197.478597 C122.700534,200.22526 123.720533,202.598592 125.353865,204.598592 L125.353865,206.090881 L123.951371,205.538594 C117.511369,202.365275 112.42053,199.655253 105.213865,195.328572 C85.3138638,183.38857 62.4538628,180.498586 38.9138618,184.008595 C34.3871948,184.681915 28.7705278,186.175242 22.0638598,188.488576 C19.9638608,185.208587 18.2005288,182.015258 16.7738628,178.908589 C16.0638598,177.368581 15.1038608,175.968587 16.2238598,174.358571 C22.0438618,166.038584 27.2238618,156.981923 31.7638608,147.188588 C32.2038628,146.241912 33.2338638,144.231913 34.8538648,141.158589 C35.8871948,139.191915 36.8371938,137.155248 37.7038628,135.048589 C38.7171938,134.468582 39.2138598,133.475245 39.1938608,132.068578 C39.1938838,131.78513 39.1324668,131.505345 39.0138608,131.248586 C25.5438588,101.978581 23.7438638,69.1985671 29.2138578,37.5985921 C30.5405278,29.9519241 32.8338628,22.7752581 36.0938628,16.0685931 C36.5618418,15.0960281 37.7022688,14.6476951 38.7138578,15.0385941 C45.5671948,17.6919151 52.0705288,21.2852471 58.2238598,25.8185931 C68.2905248,33.2385761 77.8138588,41.7719111 86.7938588,51.4185991 C93.7238598,58.8586021 100.533857,68.6685991 106.08386,77.0185751 C106.285658,77.3177691 106.656004,77.4546401 107.003859,77.3586021 C130.203861,70.6385901 153.200529,70.6985881 175.993864,77.5385941 C176.684126,77.7456251 177.429228,77.4631241 177.813856,76.8485921 C183.187188,68.1352541 189.403858,59.8552451 196.463865,52.0085651 C209.943861,37.0385941 226.46385,22.3485921 245.743849,14.8885701 C246.44261,14.6203201 247.234053,14.8689161 247.653852,15.4885761 C248.553857,16.8219091 249.317193,18.3619081 249.943861,20.1085711 C260.103865,48.6185811 259.663862,79.9585771 252.573866,109.698583 C250.867201,116.865249 248.283868,124.178583 244.823866,131.638585 C244.649397,132.026555 244.683241,132.477773 244.913862,132.838582 C251.573866,142.998586 256.813856,156.658589 262.813856,165.458577 C265.007195,168.665242 266.817193,171.355245 268.243849,173.528584 C268.870517,174.47524 268.79052,175.745239 268.003859,177.338582 C266.770521,179.818583 265.650526,182.205251 264.643873,184.498586 Z M205.693861,91.7985891 C215.013868,97.0685781 222.183851,103.918584 229.923872,111.598577 C230.092268,111.766652 230.334517,111.837651 230.56703,111.787114 C230.799513,111.736577 230.990431,111.571401 231.073866,111.348577 C234.56052,102.368576 236.697187,93.0352421 237.48387,83.3485771 C238.057193,76.3485871 238.270521,68.6819251 238.123854,60.3485921 C238.070529,57.2619221 237.527194,54.1219171 236.493849,50.9285781 C236.438887,50.7556961 236.317091,50.6119581 236.155561,50.5293171 C235.994062,50.4466751 235.806227,50.4320271 235.633863,50.4885761 C235.193861,50.6285701 234.900526,50.8585711 234.753859,51.1785781 C227.763868,66.0885821 216.783857,79.5985921 205.58386,91.0085801 C205.473112,91.1194201 205.420729,91.2757621 205.442335,91.4309431 C205.463942,91.5861251 205.557051,91.7222181 205.693861,91.7985891 Z M48.4138618,51.6685991 C48.1271948,52.2352491 47.9405288,52.8552451 47.8538648,53.5285841 C45.4138618,73.8085831 46.9738598,93.5152481 52.5338568,112.64858 C52.5971738,112.86678 52.7701778,113.036321 52.9883248,113.093938 C53.2064718,113.151555 53.4369868,113.088613 53.5938628,112.928578 C59.4805298,107.075246 65.8438628,101.62858 72.6838588,96.5885821 C74.8705248,94.9685871 77.0971908,93.6419221 79.3638588,92.6085861 C79.4923228,92.5525101 79.5854018,92.4373521 79.6132718,92.2999771 C79.6411498,92.1626181 79.6003168,92.0202841 79.5038588,91.9185841 C68.1838608,80.1185861 58.3438628,66.6919151 49.9838618,51.6385701 C49.8236218,51.3517351 49.5183768,51.1765031 49.1898628,51.182597 C48.8613488,51.1890461 48.5630248,51.3758131 48.4138618,51.6685991 Z M187.69766,137.721181 C183.607603,137.921208 179.782637,140.108235 177.064222,143.801122 C174.345808,147.494023 172.956617,152.390279 173.202269,157.41277 C173.447889,162.435292 175.308241,167.172658 178.374037,170.582662 C181.439848,173.992696 185.45999,175.79604 189.550062,175.595967 C193.64012,175.395955 197.465086,173.208943 200.1835,169.516042 C202.901915,165.82314 204.291105,160.9269 204.045454,155.904378 C203.799833,150.881856 201.939482,146.144505 198.873671,142.734487 C195.807875,139.324468 191.787733,137.521138 187.69766,137.721181 Z M95.7302678,138.322484 C91.6568888,138.478948 87.8265818,140.61353 85.0819608,144.256627 C82.3373468,147.899739 80.9032568,152.752934 81.0951598,157.748586 C81.2870688,162.744222 83.0892698,167.473103 86.1052838,170.894917 C89.1213048,174.316731 93.1040778,176.151174 97.1774578,175.994679 C101.250837,175.838216 105.081144,173.703633 107.825758,170.060536 C110.570372,166.417439 112.004469,161.564229 111.812559,156.568593 C111.620649,151.572926 109.818449,146.844045 106.802443,143.422246 C103.786421,140.000432 99.8036328,138.16599 95.7302678,138.322484 Z" id="path4" fill="#F67B26"></path>
            <g id="Group" transform="translate(1.5054, 1.3026)" fill="#243036">
                <path d="M12.2284367,53.3711953 C11.7261524,55.8075334 11.606152,55.7357848 11.8684357,53.1559494 C12.1307194,50.5761139 12.3173868,46.7161082 12.4284377,41.5759324 C13.0884357,42.4292854 13.5151027,42.1692954 13.7084357,40.7959644 C14.6551017,34.1892954 16.1151017,27.9626304 18.0884377,22.1159714 C19.0017697,19.4092864 20.2117687,16.0592804 21.7184347,12.0659534 C24.0084357,6.00595536 28.8884327,-0.114039643 35.7784317,0.145939357 C38.8917697,0.265955357 41.8851037,0.952621357 44.7584357,2.20593736 C58.5384337,8.19595836 70.7984367,17.7859544 81.7484337,27.7859544 C88.3484397,33.8126064 94.4484407,40.3026064 100.048437,47.2559554 C104.475103,52.7559554 107.6651,56.8692874 109.618429,59.5959524 C110.405101,60.6959684 111.51177,61.0959724 112.938436,60.7959644 C117.938436,59.7426194 122.028437,59.1092784 125.20844,58.8959394 C131.588435,58.4626304 136.645101,58.1826424 140.378438,58.0559744 C144.358434,57.9259694 147.498434,58.3959394 151.638433,58.5059554 C156.898443,58.6559494 162.08843,59.6759694 167.718435,60.7259564 C168.645193,60.8997244 169.604253,60.7214404 170.408437,60.2259564 C171.448436,59.5859424 172.395101,58.7059374 173.248434,57.5859424 C177.228434,52.3792774 180.208435,48.6926114 182.188436,46.5259444 C184.355103,44.1592864 185.848435,42.4292854 186.668432,41.3359424 C188.195104,39.2892704 189.661774,37.5326074 191.068441,36.0659534 C195.768433,31.1792954 199.558431,27.5392914 202.438436,25.1459394 C204.825104,23.1659594 208.895101,19.8459624 214.648427,15.1859484 C220.041758,10.8126164 226.085093,7.01261836 232.778432,3.78595436 C235.531769,2.45262136 237.701772,1.58595236 239.288442,1.18594836 C242.661774,0.339289357 244.968435,-0.0540416432 246.208425,0.00595535684 C252.378438,0.325963357 256.738424,4.87595036 258.998434,10.2559554 C263.245097,20.3959504 265.945099,31.3259524 267.09844,43.0459644 C268.231761,54.6059614 268.791758,63.3592984 268.778432,69.3059744 C268.771759,72.7593024 268.565094,77.7159624 268.158437,84.1759534 C267.788442,90.0359544 266.898427,95.7159474 266.138448,100.51595 C264.565104,110.375955 261.941762,120.035959 258.268423,129.495961 C257.899862,130.447773 257.965597,131.51418 258.448446,132.415959 C260.4151,136.095952 264.4151,143.879287 270.448446,155.765965 C272.155111,159.132624 275.731771,164.319289 281.178426,171.325963 C282.378438,172.865941 281.408437,175.145939 280.608449,176.935948 C277.228445,184.502619 275.155111,189.015955 274.388448,190.475956 C268.941773,200.889287 262.935099,209.729283 256.368429,216.995945 C251.128438,222.802627 247.481771,226.73263 245.428426,228.785954 C239.76176,234.459294 234.521759,239.052627 229.708425,242.565953 C217.495097,251.485956 206.271769,258.259292 196.038442,262.88596 C181.138433,269.62595 164.478429,274.275944 148.078435,275.935948 C143.498439,276.39595 138.411774,276.339289 132.818441,275.765965 C121.59844,274.612624 111.39177,272.452621 102.198431,269.285954 C101.405106,269.012618 98.5951077,268.005955 93.7684377,266.265965 C90.3884327,265.052627 87.5917657,263.945958 85.3784377,262.945958 C74.2451017,257.932632 63.8251007,251.73263 54.1184357,244.345952 C47.1984377,239.085962 41.2784367,234.019291 36.3584337,229.145939 C31.7184347,224.539291 26.8484357,218.992629 21.7484367,212.505955 C12.5351037,200.779291 5.36177073,188.269291 0.22843673,174.975956 C-0.20601127,173.839482 -0.0125072703,172.557042 0.73843473,171.595952 C6.80510273,163.875961 12.0617697,155.465962 16.5084357,146.365956 C18.7751027,141.725951 20.9817707,137.22262 23.1284377,132.855961 C23.6414997,131.816334 23.6671417,130.60381 23.1984377,129.545949 C21.5984367,125.93929 20.6351027,123.555958 20.3084347,122.395955 C19.3751027,119.129292 18.7584367,117.105956 18.4584357,116.325947 C17.7717707,114.565948 17.1817697,112.542617 16.6884357,110.255955 C15.8684357,106.522618 14.9117697,101.492619 13.8184367,95.1659594 C13.3251027,92.3059534 13.0584357,89.7059524 13.0184377,87.3659564 C12.9684347,83.7859544 12.3084347,80.9859514 12.2284367,76.9459584 C12.0884377,68.8659414 12.1184377,61.1092784 12.3184367,53.6759694 C12.3253257,53.4157764 12.1313757,53.1916554 11.8684357,53.1559494 C11.7017697,53.1359504 12.5017707,53.0712073 12.2284367,53.3711953 Z M36.1984377,133.745961 C33.9184337,136.772623 31.9551007,140.075952 30.3084387,143.655949 C27.2084377,150.415949 24.1284367,156.419285 21.0684367,161.665959 C18.9617707,165.279281 16.9184367,168.402613 14.9384357,171.035954 C13.3584367,173.149296 13.1151037,175.255965 14.2084357,177.355961 C15.6617697,180.162622 17.3851027,183.46262 19.3784347,187.255955 C20.9451027,190.229283 22.9084367,193.405949 25.2684377,196.785954 C33.7684377,208.995945 42.8984347,219.975956 54.6284377,229.37595 C77.9284337,248.045964 103.728429,260.325963 133.538442,263.87595 C138.118439,264.422622 142.548437,264.432621 146.828435,263.905949 C165.841772,261.55929 183.691773,255.909296 200.378438,246.955967 C209.798442,241.902623 217.975108,236.582615 224.908437,230.995945 C230.595103,226.415949 237.201772,220.202621 244.728445,212.355961 C248.328451,208.595952 250.728445,205.205967 254.608449,200.205967 C256.728445,197.479283 259.031769,193.705947 261.518423,188.88596 C262.451772,187.085952 262.991781,185.189284 263.138448,183.195958 C264.145101,180.902623 265.265096,178.515955 266.498434,176.035954 C267.285095,174.442611 267.365092,173.172612 266.738424,172.225956 C265.311768,170.052617 263.50177,167.362614 261.308431,164.155949 C255.308431,155.355961 250.068441,141.695958 243.408437,131.535954 C243.177816,131.175145 243.143972,130.723927 243.318441,130.335957 C246.778443,122.875955 249.361776,115.562621 251.068441,108.395955 C258.158437,78.6559494 258.59844,47.3159534 248.438436,18.8059434 C247.811768,17.0592804 247.048432,15.5192814 246.148427,14.1859484 C245.728628,13.5662884 244.937185,13.3176924 244.238424,13.5859424 C224.958425,21.0459644 208.438436,35.7359664 194.95844,50.7059374 C187.898433,58.5526174 181.681763,66.8326264 176.308431,75.5459644 C175.923803,76.1604964 175.178701,76.4429974 174.488439,76.2359664 C151.695104,69.3959604 128.698436,69.3359624 105.498434,76.0559744 C105.150579,76.1520124 104.780233,76.0151414 104.578435,75.7159474 C99.0284317,67.3659714 92.2184347,57.5559744 85.2884337,50.1159714 C76.3084337,40.4692834 66.7850997,31.9359484 56.7184347,24.5159654 C50.5651037,19.9826194 44.0617697,16.3892874 37.2084327,13.7359664 C36.1968437,13.3450674 35.0564167,13.7934004 34.5884377,14.7659654 C31.3284377,21.4726304 29.0351027,28.6492964 27.7084327,36.2959644 C22.2384387,67.8959394 24.0384337,100.675953 37.5084357,129.945958 C37.6270417,130.202717 37.6884587,130.482502 37.6884357,130.76595 C37.7084347,132.172617 37.2117687,133.165954 36.1984377,133.745961 Z" id="Path"></path>
                <path d="M186.192251,136.418583 C194.709341,136.002034 202.028478,144.142903 202.539999,154.601719 C203.051519,165.060551 196.561727,173.876774 188.044622,174.293339 C179.527532,174.709874 172.208394,166.569035 171.696874,156.110173 C171.185354,145.651371 177.675146,136.835148 186.192251,136.418583 Z" id="path1"></path>
                <path d="M94.2248277,137.019841 C102.707189,136.693989 109.907461,144.863041 110.307104,155.265934 C110.706747,165.668828 104.154409,174.366215 95.6720477,174.692082 C87.1896867,175.017918 79.9893997,166.848881 79.5897647,156.445988 C79.1901297,146.04308 85.7424667,137.345707 94.2248277,137.019841 Z" id="path2"></path>
                <path d="M159.20844,204.235966 C159.181768,204.375961 159.105098,204.469293 158.978429,204.515965 C159.071762,204.242629 159.051763,204.015955 158.918432,203.835942 C158.852499,203.741917 158.747579,203.682744 158.633001,203.674962 C158.518407,203.66721 158.406454,203.711674 158.328435,203.795964 C154.935104,207.455957 151.051773,210.109288 146.678441,211.755955 C146.34519,211.880223 146.05364,212.098881 145.83843,212.38596 C145.158437,213.29929 144.758438,214.329289 144.638433,215.475956 C144.105098,220.335962 143.908432,225.195958 144.048437,230.055943 C144.095098,231.562616 144.988429,232.255955 146.728429,232.13596 C158.078435,231.315953 165.008443,226.12595 172.438436,218.325963 C174.018438,216.665959 176.478429,216.325963 177.83843,218.815953 C177.989812,219.098881 178.075277,219.409947 178.08843,219.725956 C178.208435,222.525965 177.021769,224.995966 174.528432,227.13596 C168.198431,232.555943 161.028432,237.225956 152.678441,239.12595 C137.928441,242.465947 122.318441,238.675969 110.358434,229.665959 C107.878438,227.795964 103.758443,224.085942 105.888433,220.785954 C107.288437,218.612614 109.045105,218.512618 111.158437,220.485966 C116.505107,225.505965 122.655106,229.039291 129.608434,231.085942 C131.541774,231.659286 133.388443,231.845952 135.148443,231.645939 C135.660131,231.583348 136.104421,231.267094 136.328435,230.805943 C138.508443,226.345952 138.138433,221.965947 138.328435,215.545964 C138.375107,214.065963 138.031774,212.939295 137.298437,212.165959 C137.212347,212.073216 137.110937,211.995457 136.998434,211.935948 L131.218435,208.835942 C131.038854,208.742863 130.868078,208.632359 130.70844,208.505955 C126.408205,206.103355 123.779859,204.245833 122.823401,202.93339 C121.388715,200.964726 121.195109,198.922632 120.788442,196.175969 C119.498434,187.445958 126.20844,182.415959 133.898443,181.185948 C140.938436,180.055943 153.09844,180.265965 158.238439,185.205967 C162.478429,189.275944 162.698431,194.825963 160.618429,200.365941 C160.138438,201.64595 159.668442,202.935958 159.20844,204.235966 Z" id="path3"></path>
            </g>
            <path d="M262.873854,187.418569 C260.993849,191.071909 259.477186,193.751912 258.323866,195.458577 C232.383863,233.988576 193.183866,258.378591 146.72386,264.238576 C143.843865,264.598582 139.913867,264.485249 134.933866,263.89858 C91.9938638,258.778584 54.0138608,234.698567 29.1038648,199.428578 C26.0038638,195.041921 23.6571948,191.395253 22.0638598,188.488576 C28.7705278,186.175242 34.3871948,184.681915 38.9138618,184.008595 C62.4538628,180.498586 85.3138638,183.38857 105.213865,195.328572 C112.42053,199.655253 119.243864,203.405253 125.683866,206.578572 L137.513868,214.14858 C138.085051,214.512593 138.443235,215.131947 138.47386,215.808583 C138.747196,221.328582 138.390532,226.438578 137.403868,231.13857 C137.309233,231.587666 136.912809,231.908986 136.453856,231.908589 C128.533857,231.938588 119.653868,226.778584 114.053862,221.578572 C107.623854,215.618581 102.823866,223.748586 107.593855,228.468587 C122.213865,242.918569 146.97386,247.448567 165.033857,237.438588 C169.853865,234.768575 184.383863,226.038594 180.013868,219.048573 C178.573866,216.738576 175.713865,216.568593 173.773863,218.428578 C165.56386,226.318593 159.133863,232.13857 147.003859,232.208577 C146.872099,232.211659 146.745115,232.159261 146.653837,232.064198 C146.562574,231.969136 146.515409,231.840108 146.523863,231.708577 L147.523863,215.728597 C147.565748,215.053548 148.001661,214.468404 148.633863,214.238576 C153.173862,212.538584 157.123859,209.731923 160.483854,205.818593 C160.610523,205.771921 160.687193,205.678589 160.713865,205.538594 C161.35386,205.538594 161.823856,205.451924 162.123854,205.278584 C170.56386,200.428578 180.813856,194.078572 189.423857,190.468587 C208.08386,182.62858 227.590528,180.171915 247.943861,183.098592 C253.110528,183.838582 258.087192,185.278574 262.873854,187.418569 Z" id="path5" fill="#FEFAEC"></path>
            <g id="g1" transform="translate(46.7376, 50.4547)" fill="#CC5610">
                <path d="M158.956299,41.3439023 C158.819489,41.2675313 158.72638,41.1314383 158.704773,40.9762563 C158.683167,40.8210753 158.73555,40.6647333 158.846298,40.5538933 C170.046295,29.1439053 181.026306,15.6338953 188.016297,0.723891348 C188.162964,0.403884348 188.456299,0.173883348 188.896301,0.0338893478 C189.068665,-0.0226596522 189.2565,-0.00801165224 189.417999,0.0746303478 C189.579529,0.157271348 189.701325,0.301009348 189.756287,0.473891348 C190.789632,3.66723035 191.332967,6.80723535 191.386292,9.89390535 C191.532959,18.2272383 191.319631,25.8939003 190.746308,32.8938903 C189.959625,42.5805553 187.822958,51.9138893 184.336304,60.8938903 C184.252869,61.1167143 184.061951,61.2818903 183.829468,61.3324273 C183.596955,61.3829643 183.354706,61.3119653 183.18631,61.1438903 C175.446289,53.4638973 168.276306,46.6138913 158.956299,41.3439023 Z" id="path6"></path>
                <path d="M1.67629952,1.21391235 C1.82546252,0.921126348 2.12378652,0.734359348 2.45230052,0.727910252 C2.78081452,0.721816348 3.08605952,0.897048348 3.24629952,1.18388335 C11.6063005,16.2372283 21.4462985,29.6638993 32.7662965,41.4638973 C32.8627545,41.5655973 32.9035875,41.7079313 32.8757095,41.8452903 C32.8478395,41.9826653 32.7547605,42.0978233 32.6262965,42.1538993 C30.3596285,43.1872353 28.1329625,44.5139003 25.9462965,46.1338953 C19.1063005,51.1738933 12.7429675,56.6205593 6.85630052,62.4738913 C6.69942452,62.6339263 6.46890952,62.6968683 6.25076252,62.6392513 C6.03261552,62.5816343 5.85961152,62.4120933 5.79629452,62.1938933 C0.236297523,43.0605613 -1.32370048,23.3538963 1.11630252,3.07389735 C1.20296652,2.40055835 1.38963252,1.78056235 1.67629952,1.21391235 Z" id="path7"></path>
            </g>
            <g id="g2" fill="#010304">
                <path d="M13.9338628,42.8785601 C14.2071968,42.5785721 14.8171958,40.6700667 14.9838618,40.6900657 C15.2468018,40.7257717 15.0500275,41.8383991 15.0431385,42.0985921 C14.8431395,49.5319011 13.7938638,68.9765179 13.9338628,77.0565349 C14.0138608,81.0965279 14.4738598,85.0885821 14.5238628,88.6685841 C14.5638608,91.0085801 14.8305278,93.6085811 15.3238618,96.4685871 C16.4171948,102.795247 17.3738608,107.825246 18.1938608,111.558583 C18.6871948,113.845245 19.2771958,115.868576 19.9638608,117.628575 C20.2638618,118.408584 20.8805278,120.43192 21.8138598,123.698583 C22.1405278,124.858586 23.1038618,127.241918 24.7038628,130.848577 C25.1725668,131.906438 25.1469248,133.118962 24.6338628,134.158589 C22.4871958,138.525248 20.2805278,143.028579 18.0138608,147.668584 C13.5671948,156.76859 8.31052782,165.178589 2.24385982,172.89858 C1.49291782,173.85967 1.29941382,175.14211 1.73386182,176.278584 C6.86719582,189.571919 14.0405288,202.081919 23.2538618,213.808583 C28.3538608,220.295257 33.2238598,225.841919 37.8638588,230.448567 C42.7838618,235.321919 48.7038628,240.38859 55.6238608,245.64858 C65.3305258,253.035258 75.7505268,259.23526 86.8838628,264.248586 C89.0971908,265.248586 91.8938578,266.355255 95.2738628,267.568593 C100.100533,269.308583 102.910531,270.315246 103.703856,270.588582 C112.897195,273.755249 123.103865,275.915252 134.323866,277.068593 C139.917199,277.641917 145.003864,277.698578 149.58386,277.238576 C165.983854,275.578572 182.643858,270.928578 197.543867,264.188588 C207.777194,259.56192 219.000522,252.788584 231.21385,243.868581 C236.027184,240.355255 241.267185,235.761922 246.933851,230.088582 C248.987196,228.035258 252.633863,224.105255 257.873854,218.298573 C264.440524,211.031911 270.447198,202.191915 275.893873,191.778584 C276.660536,190.318583 278.73387,185.805247 282.113874,178.238576 C282.913862,176.448567 283.883863,174.168569 282.683851,172.628591 C277.237196,165.621917 273.660536,160.435252 271.953871,157.068593 C265.920525,145.181915 261.920525,137.39858 259.953871,133.718587 C259.471022,132.816808 259.405287,131.750401 259.773848,130.798589 C263.447187,121.338587 266.070529,111.678583 267.643873,101.818578 C268.403852,97.0185751 269.293867,91.3385821 269.663862,85.4785811 C270.070519,79.0185901 270.277184,74.0619301 270.283857,70.6086021 C270.297183,64.6619261 269.737186,55.9085891 268.603865,44.3485921 C267.450524,32.6285801 264.750522,21.6985781 260.503859,11.5585831 C258.243849,6.17857806 253.883863,1.62859106 247.71385,1.30858306 C246.47386,1.24858606 244.167199,1.64191706 240.793867,2.48857606 C239.207197,2.88858006 237.037194,3.75524906 234.283857,5.08858206 C227.590518,8.31524606 221.547183,12.1152441 216.153852,16.4885761 C210.400526,21.1485901 206.330529,24.4685871 203.943861,26.4485671 C201.063856,28.8419191 197.273858,32.4819231 192.573866,37.3685811 C191.167199,38.8352351 189.700529,40.5918981 188.173857,42.6385701 C187.35386,43.7319131 185.860528,45.4619141 183.693861,47.8285721 C181.71386,49.9952391 178.733859,53.6819051 174.753859,58.8885701 C173.900526,60.0085651 172.953861,60.8885701 171.913862,61.5285841 C171.109678,62.0240681 170.150618,62.2023521 169.22386,62.0285841 C163.593855,60.9785971 158.403868,59.9585771 153.143858,59.8085831 C149.003859,59.6985671 145.863859,59.2285971 141.883863,59.3586021 C138.150526,59.4852701 133.09386,59.7652581 126.713865,60.1985671 C123.533862,60.4119061 119.443861,61.0452471 114.443861,62.0985921 C113.017195,62.3986001 111.910526,61.9985961 111.123854,60.8985801 C109.170525,58.1719151 105.980528,54.0585831 101.553862,48.5585831 C95.9538658,41.6052341 89.8538648,35.1152341 83.2538588,29.0885821 C72.3038618,19.0885821 60.0438588,9.49858606 46.2638608,3.50856506 C43.3905288,2.25524906 40.3971948,1.56858306 37.2838568,1.44856706 C30.3938578,1.18858806 25.5138608,7.30858306 23.2238598,13.3685811 C21.7171938,17.3619081 20.5071948,20.7119141 19.5938628,23.4185991 C17.6205268,29.2652581 16.1605268,35.4919231 15.2138608,42.0985921 C15.0205278,43.4719231 14.5938608,43.7319131 13.9338628,42.8785601 C15.0205278,32.7585651 17.5205278,23.0552361 21.4338628,13.7685751 C26.0938628,2.73857606 33.2738628,-3.25141394 46.1638618,2.25856506 C53.4371928,5.37190706 60.2905248,9.30524706 66.7238598,14.0585831 C83.9438608,26.7719011 98.9238618,42.0352371 111.663862,59.8485921 C112.743864,61.3685811 113.953856,60.9985861 115.563856,60.6785781 C133.817193,57.1119081 151.777194,57.1852411 169.443861,60.8985801 C170.616636,61.1420791 171.821119,60.6712851 172.513868,59.6985671 C182.993859,44.9519041 194.88719,32.0085751 208.193861,20.8685811 C217.003859,13.5085651 242.673872,-5.67142794 253.513868,1.62859106 C256.953871,3.94857806 259.433872,6.70190406 260.953871,9.88857006 C264.333855,16.9819131 266.773848,24.8419191 268.273848,33.4685871 C271.940514,54.5419101 272.403852,75.6619111 269.663862,96.8285871 C268.090518,108.955246 265.147189,120.435241 260.833876,131.268575 C260.537397,132.00652 260.596388,132.839772 260.993849,133.528584 C263.093865,137.195251 266.133874,143.081919 270.113874,151.188588 C273.863874,158.828572 278.313856,165.378591 283.433851,171.828572 C285.083876,173.89858 284.183851,175.988576 283.113874,178.598592 C278.760542,189.205261 274.830539,197.161926 271.323866,202.468587 C246.583876,239.848592 208.713865,266.248586 165.103865,276.088582 C150.157199,279.461914 135.493864,279.585245 121.113859,276.458577 C82.0071948,267.96525 49.7271958,248.22525 24.2738628,217.238576 C13.9438608,204.678578 5.46386082,190.528584 0.113858823,175.478597 C-0.0228181768,175.094655 -0.0368101768,174.681905 0.0738618232,174.298573 C0.413860823,173.125254 0.927192823,172.115254 1.61385882,171.268575 C10.1938608,160.748586 15.5438588,149.468587 22.4538588,135.368581 C23.1205288,134.015248 23.4905298,132.935246 23.5638638,132.128575 C23.5901088,131.819905 23.5385798,131.507268 23.4138618,131.218587 C19.5605268,122.451914 16.7505268,112.821914 14.9838618,102.328587 C12.2971938,86.3419241 12.7605288,58.5252481 13.9338628,42.8785601 Z" id="path8"></path>
                <path d="M37.7038628,135.048589 C36.8371938,137.155248 35.8871948,139.191915 34.8538648,141.158589 C33.2338638,144.231913 32.2038628,146.241912 31.7638608,147.188588 C27.2238618,156.981923 22.0438618,166.038584 16.2238598,174.358571 C15.1038608,175.968587 16.0638598,177.368581 16.7738628,178.908589 C18.2005288,182.015258 19.9638608,185.208587 22.0638598,188.488576 C23.6571948,191.395253 26.0038638,195.041921 29.1038648,199.428578 C54.0138608,234.698567 91.9938638,258.778584 134.933866,263.89858 C139.913867,264.485249 143.843865,264.598582 146.72386,264.238576 C193.183866,258.378591 232.383863,233.988576 258.323866,195.458577 C259.477186,193.751912 260.993849,191.071909 262.873854,187.418569 L264.643873,184.498586 C264.497206,186.491912 263.957197,188.38858 263.023848,190.188588 C260.537194,195.008575 258.23387,198.781911 256.113874,201.508595 C252.23387,206.508595 249.833876,209.89858 246.23387,213.658589 C238.707197,221.505249 232.100528,227.718577 226.413862,232.298573 C219.480533,237.885243 211.303867,243.205251 201.883863,248.258595 C185.197198,257.211924 167.347197,262.861918 148.33386,265.208577 C144.053862,265.735249 139.623864,265.72525 135.043867,265.178578 C105.233854,261.628591 79.4338588,249.348592 56.1338628,230.678578 C44.4038598,221.278584 35.2738628,210.298573 26.7738628,198.088582 C24.4138618,194.708577 22.4505278,191.531911 20.8838598,188.558583 C18.8905278,184.765248 17.1671948,181.46525 15.7138608,178.658589 C14.6205288,176.558593 14.8638618,174.451924 16.4438608,172.338582 C18.4238618,169.705241 20.4671958,166.581909 22.5738618,162.968587 C25.6338618,157.721913 28.7138628,151.718577 31.8138638,144.958577 C33.4605258,141.37858 35.4238588,138.075251 37.7038628,135.048589 Z" id="path9"></path>
                <path d="M160.483854,205.818593 C157.123859,209.731923 153.173862,212.538584 148.633863,214.238576 C148.001661,214.468404 147.565748,215.053548 147.523863,215.728597 L146.523863,231.708577 C146.515409,231.840108 146.562574,231.969136 146.653837,232.064198 C146.745115,232.159261 146.872099,232.211659 147.003859,232.208577 C159.133863,232.13857 165.563856,226.318593 173.773863,218.428578 C175.713865,216.568593 178.573866,216.738576 180.013868,219.048573 C184.383863,226.038594 169.853865,234.768575 165.033857,237.438588 C146.97386,247.448567 122.213865,242.918569 107.593855,228.468587 C102.823866,223.748586 107.623854,215.618581 114.053862,221.578572 C119.653868,226.778584 128.533857,231.938588 136.453856,231.908589 C136.912809,231.908986 137.309233,231.587666 137.403868,231.13857 C138.390532,226.438578 138.747196,221.328582 138.47386,215.808583 C138.443235,215.131947 138.085051,214.512593 137.513868,214.14858 L125.353865,206.578572 C124.890068,205.881679 124.658169,205.401678 124.658169,205.13857 C124.658169,204.875462 124.890068,204.695469 125.353865,204.598592 L132.213865,209.808583 C132.373503,209.934987 132.544279,210.045491 132.72386,210.13857 L138.503859,213.238576 C138.616362,213.298085 138.717772,213.375844 138.803862,213.468587 C139.537199,214.241923 139.880532,215.368591 139.83386,216.848592 C139.643858,223.268575 140.013868,227.64858 137.83386,232.108571 C137.609846,232.569722 137.165556,232.885976 136.653868,232.948567 C134.893868,233.14858 133.047199,232.961914 131.113859,232.38857 C124.160531,230.341919 118.010532,226.808593 112.663862,221.788594 C110.55053,219.815246 108.793862,219.915242 107.393858,222.088582 C105.263868,225.38857 109.383863,229.098592 111.863859,230.968587 C123.823866,239.978597 139.433866,243.768575 154.183866,240.428578 C162.533857,238.528584 169.703856,233.858571 176.033857,228.438588 C178.527194,226.298594 179.71386,223.828593 179.593855,221.028584 C179.580702,220.712575 179.495237,220.401509 179.343855,220.118581 C177.983854,217.628591 175.523863,217.968587 173.943861,219.628591 C166.513868,227.428578 159.58386,232.618581 148.233854,233.438588 C146.493854,233.558583 145.600523,232.865244 145.553862,231.358571 C145.413857,226.498586 145.610523,221.63859 146.143858,216.778584 C146.263863,215.631917 146.663862,214.601918 147.343855,213.688588 C147.559065,213.401509 147.850615,213.182851 148.183866,213.058583 C152.557198,211.411916 156.440529,208.758585 159.83386,205.098592 C159.911879,205.014302 160.023832,204.969838 160.138426,204.97759 C160.253004,204.985372 160.357924,205.044545 160.423857,205.13857 C160.557188,205.318583 160.577187,205.545257 160.483854,205.818593 Z" id="path10"></path>
            </g>
        </g>
    </g>
</svg>